<?xml version="1.0" encoding="UTF-8"?>
<svg xmlns="http://www.w3.org/2000/svg" width="1200" height="630" viewBox="0 0 1200 630">
  <rect width="1200" height="630" fill="#0d0f14"/>
  <svg x="300" y="15" width="600" height="600" viewBox="150 50 250 250" preserveAspectRatio="xMidYMid meet">

   <desc>Created with Fabric.js 3.6.3</desc>
   <defs>
</defs>
   <g transform="matrix(0.5 0 0 0.5 247.48444912585728 206.66575965527693)"  >
   <g style=""   >

   <g transform="matrix(-2.048161117685507 -0.0067919843683027885 0.006791984368302794 -2.04816111768551 37.03110174828555 -61.216042048942796)"  >
      <g style=""   >
         <g transform="matrix(1 0 0 1 0.04999999999999716 2.2900000000000063)"  >
            <path fill="#f0f2f7" transform=" translate(-104.185, -103.59)" d="M 166.75 75.84 c 0 -0.01 0 -0.02 0 -0.04 c 0 -0.05 0 -0.1 0 -0.15 h 0 c -0.1 -3.89 -3.28 -7.01 -7.19 -7.01 c -3.91 0 -7.09 3.12 -7.19 7.01 h 0 c 0 0.07 0 0.15 0 0.22 c 0 26.66 -21.58 48.27 -48.19 48.27 C 77.57 124.15 56 102.54 56 75.88 c 0 -0.07 0 -0.15 0 -0.22 h 0 c -0.1 -3.89 -3.28 -7.01 -7.19 -7.01 s -7.09 3.12 -7.19 7.01 h 0 c 0 0.05 0 0.1 0 0.15 c 0 0.01 0 0.02 0 0.04 c 0 0 0 0.01 0 0.01 c 0 0.01 0 0.02 0 0.02 c 0 34.61 28.01 62.66 62.56 62.66 c 34.55 0 62.57 -28.06 62.57 -62.66 c 0 -0.01 0 -0.02 0 -0.02 C 166.75 75.85 166.75 75.85 166.75 75.84 z" stroke-linecap="round" />
         </g>
         <g transform="matrix(1 0 0 1 0.05000000000000071 -60.19)"  >
            <ellipse fill="#e05062" cx="0" cy="0" rx="16.7" ry="16.72" />
         </g>
         <g transform="matrix(1 0 0 1 13.719553718843052 17.954387777154636)"  >
            <path fill="#f0f2f7" transform=" translate(-117.85455371884305, -119.25438777715463)" d="M 163.17 68.83 L 163.17 68.83 c -0.04 -0.03 -0.09 -0.05 -0.13 -0.08 c -0.01 -0.01 -0.02 -0.01 -0.03 -0.02 c 0 0 -0.01 0 -0.01 -0.01 c -0.01 0 -0.01 -0.01 -0.02 -0.01 c -29.93 -17.3 -68.2 -7.04 -85.48 22.92 c -17.28 29.96 -7.02 68.28 22.91 85.59 c 0.01 0 0.01 0.01 0.02 0.01 c 0 0 0.01 0 0.01 0.01 c 0.01 0.01 0.02 0.01 0.03 0.02 c 0.04 0.02 0.09 0.05 0.13 0.07 l 0 0 c 3.41 1.86 7.7 0.66 9.66 -2.72 c 1.95 -3.39 0.84 -7.71 -2.47 -9.74 l 0 0 c -0.06 -0.04 -0.13 -0.07 -0.19 -0.11 c -23.05 -13.33 -30.96 -42.84 -17.65 -65.92 c 13.31 -23.08 42.78 -30.99 65.84 -17.66 c 0.06 0.04 0.13 0.08 0.19 0.11 l 0 0 c 3.41 1.86 7.7 0.66 9.66 -2.72 C 167.59 75.18 166.48 70.86 163.17 68.83 z" stroke-linecap="round" />
         </g>
         <g transform="matrix(1 0 0 1 57.622778040908386 39.05500000000003)"  >
            <path fill="#44abb6" transform=" translate(-161.7577780409084, -140.35500000000002)" d="M 170.1 125.89 c -7.98 -4.61 -18.19 -1.88 -22.79 6.11 c -4.61 7.99 -1.87 18.21 6.11 22.82 c 7.98 4.61 18.19 1.88 22.79 -6.11 C 180.81 140.72 178.08 130.5 170.1 125.89 z" stroke-linecap="round" />
         </g>
         <g transform="matrix(1 0 0 1 -13.69289352552748 17.935426308061366)"  >
            <path fill="#f0f2f7" transform=" translate(-90.44210647447252, -119.23542630806136)" d="M 130.81 91.61 c -17.28 -29.96 -55.56 -40.22 -85.5 -22.92 c -0.01 0 -0.01 0.01 -0.02 0.01 c 0 0 -0.01 0 -0.01 0.01 c -0.01 0.01 -0.02 0.01 -0.03 0.02 c -0.04 0.03 -0.09 0.05 -0.13 0.08 l 0 0 c -3.32 2.03 -4.43 6.35 -2.47 9.74 c 1.95 3.39 6.25 4.58 9.66 2.72 l 0 0 c 0.06 -0.04 0.13 -0.08 0.19 -0.11 c 23.06 -13.33 52.55 -5.42 65.86 17.66 c 13.31 23.08 5.41 52.59 -17.65 65.92 c -0.06 0.04 -0.13 0.07 -0.19 0.11 l 0 0 c -3.32 2.03 -4.43 6.35 -2.47 9.74 c 1.95 3.39 6.25 4.58 9.66 2.72 l 0 0 c 0.04 -0.02 0.09 -0.05 0.13 -0.07 c 0.01 -0.01 0.02 -0.01 0.03 -0.02 c 0 0 0.01 0 0.01 -0.01 c 0.01 0 0.01 -0.01 0.02 -0.01 C 137.83 159.89 148.09 121.57 130.81 91.61 z" stroke-linecap="round" />
         </g>
         <g transform="matrix(1 0 0 1 -57.610000000000014 39.015000000000036)"  >
            <path fill="#fdc446" transform=" translate(-46.52499999999999, -140.31500000000003)" d="M 60.98 131.96 c -4.61 -7.99 -14.82 -10.73 -22.8 -6.11 c -7.98 4.61 -10.72 14.83 -6.11 22.82 c 4.61 7.99 14.82 10.73 22.8 6.11 C 62.85 150.17 65.59 139.95 60.98 131.96 z" stroke-linecap="round" />
         </g>
      </g>
   </g>
   <g transform="matrix(1 0 0 1 41.98695059963375 -74.30287534218198)" style=""  >
      <path fill="#f0f2f7" opacity="1" d="M-31.60 10.99L-31.60 9.87L-18.58-10.57L-26.18-10.57Q-28.14-10.57-29.17-9.57Q-30.20-8.57-30.20-6.33L-30.20-6.33L-31.25-6.33L-31.25-9.31Q-31.25-12.11-28.28-12.11L-28.28-12.11L-12.35-12.11L-26.07 9.42L-12.53 9.42L-12.53 10.99L-31.60 10.99Z"/>
      <path fill="#f0f2f7" opacity="1" d="M8.30 11.10L-6.55-6.33L-6.55 10.99L-8.30 10.99L-8.30-7.91Q-8.30-9.38-9.01-10.22Q-9.73-11.06-11.45-11.06L-11.45-11.06L-11.62-11.06L-11.62-12.11L-9.17-12.11Q-7.21-12.11-5.97-11.60Q-4.73-11.09-3.89-10.01L-3.89-10.01L8.16 3.99L8.16-12.11L9.91-12.11L9.91 11.10L8.30 11.10Z"/>
      <path fill="#f0f2f7" opacity="1" d="M15.82 10.99L15.82-7.56Q15.82-9.34 15.33-10.20Q14.84-11.06 13.37-11.06L13.37-11.06L13.02-11.06L13.02-12.11L22.64-12.11Q26.25-12.11 29.17-10.69Q32.09-9.27 32.09-5.07L32.09-5.07Q32.09-2.34 30.57-0.84Q29.05 0.67 27.16 1.16Q25.27 1.65 23.69 1.65L23.69 1.65L20.37 1.65L20.37 10.99L15.82 10.99ZM20.37 0.25L22.47 0.25Q24.53 0.25 25.86-1.01Q27.19-2.27 27.19-5.25L27.19-5.25Q27.19-8.19 25.88-9.45Q24.57-10.71 22.64-10.71L22.64-10.71Q21.63-10.71 21.07-10.57L21.07-10.57L20.37-10.46L20.37 0.25Z"/>
   </g>
   </g>
   </g>

  </svg>
</svg>
